<?xml version="1.0" encoding="UTF-8"?>
<svg id="Livello_2" data-name="Livello 2" xmlns="http://www.w3.org/2000/svg" viewBox="0 0 188.98 283.46">
  <defs>
    <style>
      .cls-1 {
        fill: #010101;
      }
    </style>
  </defs>
  <g id="Livello_2-2" data-name="Livello 2">
    <g>
      <path class="cls-1" d="M139.64,106.93c-2.92-.24-5.49,1.95-5.71,4.89l-10.2,130.87c-.23,2.92,1.97,5.49,4.89,5.71.15.01.28.01.43.01,2.75,0,5.08-2.11,5.29-4.9l10.2-130.87c.23-2.92-1.97-5.49-4.89-5.71h0Z"/>
      <path class="cls-1" d="M94.47,106.91c-2.94,0-5.31,2.38-5.31,5.31v129.07c0,2.94,2.38,5.31,5.31,5.31s5.31-2.38,5.31-5.31V112.23c0-2.94-2.38-5.31-5.31-5.31Z"/>
      <path class="cls-1" d="M49.31,106.93c-2.92.23-5.12,2.79-4.89,5.71l10.2,130.87c.21,2.79,2.55,4.9,5.29,4.9.13,0,.28,0,.43-.01,2.92-.23,5.12-2.79,4.89-5.71l-10.2-130.87c-.23-2.92-2.83-5.12-5.71-4.89Z"/>
      <path class="cls-1" d="M8.92,64.28c2.5,1.74,5.39,2.66,8.37,2.66.85,0,1.71-.08,2.58-.23l148.47-26.18c3.85-.68,7.22-2.82,9.46-6.03,2.25-3.2,3.11-7.1,2.42-11.03-1.41-7.96-9.04-13.29-16.98-11.89l-42.76,7.55-1.82-10.32c-1.02-5.78-6.56-9.66-12.33-8.64l-41.99,7.41c-2.8.49-5.24,2.05-6.87,4.38-1.63,2.33-2.26,5.16-1.75,7.96l1.82,10.31-42.76,7.55c-3.85.68-7.22,2.82-9.46,6.03-2.25,3.2-3.11,7.1-2.42,11.02.68,3.85,2.82,7.23,6.03,9.47v-.03ZM66.19,18.03l42.02-7.39,1.82,10.31-42.03,7.41-1.81-10.34ZM14.02,49.88c.61-.88,1.54-1.46,2.6-1.66l148.49-26.18c2.15-.4,4.28,1.08,4.68,3.34.19,1.06-.05,2.13-.66,3s-1.54,1.47-2.6,1.66L18.05,56.22c-1.08.19-2.14-.05-3.02-.66-.88-.61-1.46-1.54-1.66-2.67-.19-1.06.05-2.13.66-3h-.01Z"/>
      <path class="cls-1" d="M188.95,83.83c0-7.64-6.22-13.86-13.85-13.86H13.85c-7.64,0-13.85,6.22-13.85,13.86,0,4.64,2.31,8.73,5.82,11.24l14.31,183.49c.21,2.76,2.52,4.9,5.3,4.9h138.11c2.78,0,5.08-2.14,5.3-4.9l14.31-183.49c3.51-2.52,5.82-6.6,5.82-11.24h-.03ZM13.84,80.61h161.26c1.78,0,3.22,1.45,3.22,3.23s-1.45,3.23-3.22,3.23H13.84c-1.78,0-3.22-1.45-3.22-3.23s1.45-3.23,3.22-3.23ZM158.61,272.84H30.33l-13.66-175.15h155.6l-13.66,175.15Z"/>
    </g>
  </g>
</svg>