<?xml version="1.0" encoding="UTF-8"?>
<svg id="Livello_2" data-name="Livello 2" xmlns="http://www.w3.org/2000/svg" viewBox="0 0 343 300">
  <defs>
    <style>
      .cls-1 {
        fill: #010101;
        fill-rule: evenodd;
      }
    </style>
  </defs>
  <g id="Livello_2-2" data-name="Livello 2">
    <path class="cls-1" d="M128.75,76.07l-49.59-21.16c-1.63-.69-3.5-.63-5.08.21l-34.38,18.27c-1.74.91-2.89,2.62-3.09,4.56-.22,1.94.54,3.86,2.05,5.12l5.65,4.8L2.93,112.03c-1.63.96-2.72,2.64-2.9,4.54-.18,1.9.59,3.75,2.02,4.99l56.71,49.08c.62,1.53,1.38,2.99,2.28,4.36-4.55,4.56-7.35,10.87-7.35,17.82,0,13.96,11.31,25.28,25.27,25.28,6.98,0,13.31-2.84,17.88-7.41,3.71,2.36,8.07,3.78,12.75,3.93l77.87,67.41c2.3,1.97,5.71,1.9,7.91-.19l40.51-38.55c1.02-.96,1.66-2.25,1.81-3.65l8.79-84.23,86.64-93.82c12.37-13.39,14.12-33.41,4.26-48.74h-.01c-5.57-8.66-15.43-13.56-25.7-12.77-4.11.31-8.85.68-13.74,1.06-24.64,1.9-48.56,9.01-70.24,20.85l-98.92,54.07ZM133.98,198.51c-2.05,5.26-5.79,9.65-10.56,12.52l67.68,58.59,12.13-11.53-69.25-59.58ZM303.4,76.42l-163.95,111.25,72.36,62.28,14.39-13.68,8.76-84.02c.15-1.25.68-2.44,1.53-3.37l66.91-72.45ZM69.61,183.06c-2.56,2.46-4.15,5.92-4.15,9.75,0,7.45,6.04,13.5,13.49,13.5,3.8,0,7.23-1.58,9.69-4.09-2.24-3.77-3.52-8.17-3.52-12.87,0-1.06.07-2.11.19-3.14-1.03.12-2.08.18-3.15.18-4.56,0-8.85-1.21-12.55-3.33h0ZM110.4,175.84c7.45,0,13.5,6.07,13.5,13.5s-6.05,13.52-13.5,13.52-13.5-6.05-13.5-13.52,6.05-13.5,13.5-13.5ZM330.24,44.14c2.95-8.1,2.11-17.32-2.78-24.92-3.24-5.02-8.95-7.86-14.9-7.41l-1.86.15c2.43,3.22,4.51,7.2,5.79,12.09,1.97,7.13-1.03,14.73-7.3,18.51-6.02,4.17-15.06,9.47-15.06,9.47-1.74,1.02-3.87,1.09-5.65.18-1.8-.93-3-2.68-3.18-4.68,0,0-.91-8.57-7.88-15.45-4.89-4.82-12.71-8.61-24.99-8.57-.04,0-.09,0-.13-.01-6.49,2.53-12.83,5.48-18.97,8.84l-90.77,49.62,32.1,13.68,66.12-40.35c2.78-1.69,6.41-.81,8.1,1.96,1.69,2.78.81,6.41-1.96,8.1l-129.67,79.12c-2.16,1.33-4.95,1.1-6.88-.54l-56.53-47.96-11.72,6.83,37.8,32.78c.13.1.25.22.35.34.63-.06,1.27-.07,1.9-.07,13.96,0,25.28,11.32,25.28,25.28,0,1.06-.06,2.12-.19,3.15,1.03-.13,2.09-.21,3.15-.21,9.81,0,18.32,5.61,22.52,13.78L329.12,44.73c.35-.24.74-.44,1.12-.59h0ZM82.16,147.61c7.45,0,13.5,6.05,13.5,13.5s-6.05,13.49-13.5,13.49-13.5-6.04-13.5-13.49,6.05-13.5,13.5-13.5ZM15.98,118.05l41.84,36.21c1.59-5.64,5.1-10.48,9.76-13.78l-36.22-31.41-15.37,8.98ZM59.83,85.61l54.89,46.59,47.56-29.02-85.17-36.33-24.24,12.87,3.99,3.37c1.21.47,2.25,1.33,2.96,2.52h0ZM294.88,13.23c-6.58.68-13.09,1.74-19.51,3.2,4.2,2.03,7.58,4.58,10.31,7.27,4.73,4.65,7.51,9.9,9.13,14.15,2.55-1.59,5.42-3.42,7.77-5.05.13-.09.25-.16.37-.24,1.87-1.09,2.77-3.31,2.18-5.39-.01-.03-.03-.07-.04-.12-1.87-7.23-6.43-11.46-10.2-13.83h0Z"/>
  </g>
</svg>