<?xml version="1.0" encoding="UTF-8"?>
<svg id="Livello_2" data-name="Livello 2" xmlns="http://www.w3.org/2000/svg" viewBox="0 0 341 341">
  <defs>
    <style>
      .cls-1 {
        fill: #010101;
      }
    </style>
  </defs>
  <g id="Livello_2-2" data-name="Livello 2">
    <g>
      <path class="cls-1" d="M127.56,107.04c5.87,0,10.65-4.76,10.65-10.62s-4.78-10.62-10.65-10.62-10.65,4.76-10.65,10.62,4.78,10.62,10.65,10.62Z"/>
      <path class="cls-1" d="M341,175.97v-72.32h.04c-1.02-32.87-28.13-59.29-61.31-59.29h-26.84l-.57-1.77C244.14,17.11,220.65,0,193.87,0H61.36C27.52,0,0,27.45,0,61.2v70.4c0,33.75,27.52,61.2,61.36,61.2h2.55l.08,2.55v37.97c0,2.35,1.41,4.46,3.6,5.37.7.3,1.44.44,2.21.44,1.55,0,3.01-.6,4.11-1.7l24.45-24.39,1.79,2.13c11.75,13.99,28.89,22.02,47.02,22.02h75.19l44.73,44.61c1.59,1.6,4.1,2.16,6.34,1.25,2.17-.9,3.59-3.01,3.59-5.37v-40.51h2.55c33.91,0,61.42-27.45,61.42-61.2ZM75.59,219.29v-32.29c-.01-3.2-2.62-5.8-5.83-5.8h-8.47c-27.41,0-49.71-22.24-49.71-49.58V61.22c0-27.34,22.3-49.58,49.71-49.58h132.51c27.41,0,49.71,22.24,49.71,49.58v70.4c0,27.34-22.3,49.58-49.71,49.58h-77.62c-1.53,0-3.03.62-4.11,1.7l-36.49,36.39ZM279.68,225.56h-8.47c-3.21,0-5.81,2.6-5.81,5.8v32.29l-36.49-36.39c-1.07-1.08-2.57-1.7-4.11-1.7h-77.62c-15.07,0-29.68-7.13-39.09-19.06l-1.4-1.78,11.93-11.9h75.19c33.83,0,61.36-27.45,61.36-61.2V61.22c0-.86-.03-1.69-.06-2.54l-.1-2.64,2.65-.05h22.01c26.76,0,48.65,21.21,49.66,47.66l.05.02v72.3c0,27.34-22.29,49.58-49.69,49.58Z"/>
      <path class="cls-1" d="M168.64,96.42c0,5.86,4.78,10.62,10.65,10.62s10.63-4.76,10.63-10.62-4.77-10.62-10.63-10.62-10.65,4.76-10.65,10.62Z"/>
      <path class="cls-1" d="M75.84,85.8c-5.87,0-10.65,4.76-10.65,10.62s4.78,10.62,10.65,10.62,10.65-4.76,10.65-10.62-4.78-10.62-10.65-10.62Z"/>
    </g>
  </g>
</svg>