<?xml version="1.0" encoding="UTF-8"?>
<svg id="Livello_2" data-name="Livello 2" xmlns="http://www.w3.org/2000/svg" viewBox="0 0 200 283">
  <defs>
    <style>
      .cls-1 {
        fill: #1d1d1b;
      }
    </style>
  </defs>
  <g id="Livello_2-2" data-name="Livello 2">
    <path class="cls-1" d="M201.42,96.23c-1.94-4.2-6.02-6.81-10.66-6.81h-73.27l28.73-73.37c1.42-3.62.96-7.7-1.22-10.92-2.18-3.21-5.81-5.13-9.71-5.13H53.22c-6.77,0-12.57,4.4-14.42,10.96L.44,148.02c-.99,3.61-.27,7.36,1.95,10.26,2.22,2.95,5.63,4.64,9.37,4.64h64.76l-39.27,106.46c-1.8,4.75.11,10.08,4.53,12.66,1.59.93,3.4,1.42,5.25,1.42h0c3.1,0,6.01-1.36,7.98-3.72L199.73,108.77c2.99-3.53,3.64-8.34,1.69-12.53ZM47.46,272.26l41.58-112.82c.62-1.65.39-3.48-.59-4.84-.96-1.43-2.6-2.29-4.37-2.29H11.75c-.38,0-.69-.15-.92-.45-.23-.3-.29-.64-.19-1.02L49,13.82c.55-1.97,2.17-3.19,4.22-3.19h82.08c.5,0,.8.29.95.51.22.33.26.69.11,1.08l-31.61,80.65c-.62,1.66-.41,3.44.58,4.88.99,1.44,2.63,2.31,4.39,2.31h81.04c.46-.01.83.22,1.03.66.2.44.14.84-.17,1.21L47.46,272.26Z"/>
  </g>
</svg>