<?xml version="1.0" encoding="UTF-8"?>
<svg id="Livello_2" data-name="Livello 2" xmlns="http://www.w3.org/2000/svg" viewBox="0 0 264.73 278.35">
  <defs>
    <style>
      .cls-1 {
        fill: #010101;
      }
    </style>
  </defs>
  <g id="Livello_2-2" data-name="Livello 2">
    <path class="cls-1" d="M50.56,251.76l45.96-2.29,35.84,28.88,35.84-28.88,45.96,2.29,12.02-44.42,38.54-25.16-16.36-43,16.39-43-38.54-25.16-12.02-44.42-45.96,2.29L132.37,0l-35.84,28.88-45.96-2.29-12.02,44.42L.01,96.17l16.38,43L0,182.18l38.54,25.16,12.02,44.42ZM30.31,139.17l-14.42-37.84,33.91-22.14,10.58-39.08,40.45,2.02,31.53-25.4,31.54,25.4,40.45-2.02,10.58,39.08,33.91,22.14-14.42,37.84,14.42,37.84-33.91,22.14-10.58,39.08-40.45-2.02-31.54,25.42-31.53-25.4-40.45,2.02-10.58-39.08-33.91-22.14,14.42-37.85Z"/>
    <polygon class="cls-1" points="206.24 112.49 194.2 100.45 123.91 170.75 86.31 133.16 74.29 145.19 123.91 194.81 206.24 112.49"/>
  </g>
</svg>