<?xml version="1.0" encoding="UTF-8"?>
<svg id="Livello_2" xmlns="http://www.w3.org/2000/svg" xmlns:xlink="http://www.w3.org/1999/xlink" viewBox="0 0 1008 122.72">
  <defs>
    <style>
      .cls-1 {
        fill: #1d1d1b;
      }

      .cls-2 {
        fill: none;
      }

      .cls-3 {
        clip-path: url(#clippath);
      }
    </style>
    <clipPath id="clippath">
      <rect class="cls-2" width="1008" height="122.72"/>
    </clipPath>
  </defs>
  <g id="Logo">
    <g class="cls-3">
      <g>
        <path class="cls-1" d="M164.61,0l-34.47,122.72h-20.68l-15.51-57.4c-3.62-13.62-7.41-28.44-10.69-42.57-3.27,14.13-7.07,28.96-10.69,42.57l-15.51,57.4h-20.68L1.9,0h19.13l15,55.67c3.79,14.48,7.93,30.16,11.38,45.33,3.62-15.17,7.24-30.85,11.2-45.68L73.43,0h19.65l14.82,55.33c3.96,14.82,7.58,30.51,11.2,45.68,3.45-15.17,7.58-30.85,11.38-45.33L145.47,0h19.13Z"/>
        <path class="cls-1" d="M240.96,90.83h-55.16l-11.89,31.89h-19.13L202.7,0h21.2l48.61,122.72h-19.48l-12.07-31.89ZM234.93,74.8l-2.58-6.72c-5-12.58-12.93-33.27-19.13-50.33-6.21,17.06-14.13,37.75-18.96,50.33l-2.58,6.72h43.26Z"/>
        <path class="cls-1" d="M370.4,0l-44.81,122.72h-21.03L258.88,0h19.48l25.68,71.36c3.96,11.2,7.76,22.58,11.03,33.78,3.45-11.2,7.24-22.58,11.03-33.78L351.27,0h19.13Z"/>
        <path class="cls-1" d="M397.8,16.55v34.64h62.57v16.2h-62.57v38.78h68.6v16.55h-87.04V0h87.56v16.55h-69.12Z"/>
        <path class="cls-1" d="M586.54,58.26v64.46h-14.13l-3.27-16.38c-8.79,12.24-22.41,19.13-39.99,19.13-35.16,0-58.26-25.85-58.26-64.12S493.81-2.76,530.18-2.76c30.34,0,51.02,17.24,54.98,43.26h-18.96c-3.45-16.72-17.58-26.89-35.85-26.89-24.65,0-40.33,18.44-40.33,47.74s15.86,47.74,40.68,47.74c20.68,0,37.92-14.31,38.61-35.16h-36.2v-15.68h53.43Z"/>
        <path class="cls-1" d="M702.88,122.72h-18.96c-2.58-3.79-3.45-9.31-3.62-15.69l-.52-13.1c-.69-16.55-7.24-21.72-20.86-21.72h-35.68v50.5h-18.44V0h53.6c25.86,0,42.23,12.58,42.23,33.96,0,15.34-7.93,25.51-20.68,29.65,12.58,3.62,17.06,12.24,17.58,24.99l1.21,19.13c.34,5.34,1.55,11.03,4.14,15ZM681.68,35.68c0-13.62-9.48-19.82-24.3-19.82h-34.13v41.02h35.51c13.44,0,22.92-7.07,22.92-21.2Z"/>
        <path class="cls-1" d="M794.92,90.83h-55.16l-11.89,31.89h-19.13L756.65,0h21.2l48.61,122.72h-19.48l-12.06-31.89ZM788.89,74.8l-2.59-6.72c-5-12.58-12.93-33.27-19.13-50.33-6.21,17.06-14.13,37.75-18.96,50.33l-2.59,6.72h43.26Z"/>
        <path class="cls-1" d="M961.59,0v122.72h-17.75v-38.44c0-17.41,0-38.95.69-62.22-3.1,9.48-6.21,17.75-10.34,28.44l-27.75,72.22h-15.51l-28.1-72.22c-3.96-10.51-7.07-18.62-10.17-27.92.69,23.1.69,44.47.69,61.71v38.44h-17.75V0h25.51l25.17,65.33c4.31,11.55,9.13,24.65,12.58,34.65,3.45-10.34,8.45-24.65,12.76-36.37L935.91,0h25.68Z"/>
      </g>
      <path class="cls-1" d="M975.08,15.69c0-8.73,6.68-15.66,15.79-15.66s15.79,6.93,15.79,15.66-6.68,15.62-15.79,15.62-15.79-6.93-15.79-15.62ZM1003.3,15.69c0-7.05-5.17-12.51-12.43-12.51s-12.43,5.46-12.43,12.51,5.21,12.51,12.43,12.51,12.43-5.5,12.43-12.51ZM982.72,15.69c0-5.58,3.23-9.2,8.27-9.2,4.37,0,7.31,2.56,7.81,6.63h-3.57c-.38-2.44-2.14-3.61-4.24-3.61-2.94,0-4.7,2.27-4.7,6.17s1.76,6.13,4.7,6.13c2.14,0,3.95-1.18,4.33-3.7h3.49c-.46,4.07-3.49,6.76-7.81,6.76-5,0-8.27-3.65-8.27-9.2Z"/>
    </g>
  </g>
</svg>